<svg xmlns="http://www.w3.org/2000/svg" viewBox="0 0 512 512"><path fill-rule="evenodd" d="M232.642 46.571c-4.872.758-14.322 3.276-21 5.595-10.388 3.608-13.21 4.197-19.534 4.073-6.271-.124-8.345.3-13.683 2.796-3.46 1.618-8.552 3.833-11.316 4.922-16.933 6.674-33.892 17.237-50.389 31.384-5.378 4.613-11.221 8.8-12.983 9.306-2.554.732-3.535 1.813-4.833 5.327-.895 2.424-4.728 8.213-8.516 12.863-3.788 4.65-9.046 11.652-11.684 15.559C54.71 173.94 39.437 242.224 46.471 282.5c2.202 12.607 10.372 41.573 15.156 53.733 8.056 20.479 17.662 36.937 30.165 51.681 5.935 6.999 7.237 9.185 7.746 13 .887 6.652 1.018 6.874 5.065 8.565 2.03.848 7.337 4.84 11.794 8.872 16.978 15.36 34.162 26.3 56.013 35.661 16.017 6.861 17.005 7.019 19.061 3.043 3.948-7.633 8.332-8.797 17.655-4.684 11.075 4.886 21.246 6.777 39.374 7.32 14.763.443 18.356.229 27.31-1.622 5.67-1.172 13.261-3.242 16.869-4.6 8.757-3.296 11.531-3.197 14.663.526 1.386 1.647 2.806 3.897 3.156 5 .811 2.554 3.007 2.534 11.894-.107 26.534-7.886 49.197-20.509 71.548-39.853 5.791-5.011 11.358-9.042 12.5-9.05 3.336-.025 4.24-1.177 5.473-6.972 1.296-6.093 2.478-8.217 8.632-15.513 11.226-13.311 24.568-37.516 31.418-57 4.202-11.95 9.575-32.629 11.694-45 2.616-15.271 2.385-42.902-.47-56.157-2.513-11.672-2.673-15.837-.741-19.327 1.542-2.786 1.057-4.173-3.501-10.016-1.677-2.149-4.538-9.172-7.414-18.197-7.517-23.591-19.81-46.329-33.096-61.22-3.78-4.237-5.891-7.673-6.955-11.32-1.222-4.187-2.025-5.34-4.004-5.75-1.362-.282-3.628-.753-5.037-1.047-1.408-.294-6.755-4.484-11.883-9.311-9.969-9.385-23.24-18.977-33.157-23.965-8.829-4.44-16.628-6.854-27.935-8.646-6.266-.993-11.82-2.549-14.964-4.191-3.25-1.698-6.934-2.706-10.526-2.882-3.039-.148-9.339-1.425-14-2.838-18.46-5.593-38.399-7.006-57.332-4.062M262.5 64.635c-5.378 1.112-10.974 1.294-24.153.788-16.788-.644-17.268-.606-22.5 1.8-6.184 2.842-11.475 7.031-12.345 9.772-.789 2.484 1.238 9.968 2.87 10.594.697.268 3.711-.651 6.697-2.042 6.703-3.119 11.617-3.204 22.264-.384 11.166 2.958 20.875 2.823 31.283-.436 9.935-3.111 15.009-2.423 22.108 2.996l4.642 3.543 1.753-2.164c2.478-3.061 4.307-12.437 2.928-15.013-1.744-3.26-7.116-6.774-13.765-9.004-7.133-2.391-11.912-2.49-21.782-.45M181 78.639c-5.561 1.028-15.841 4.712-21.427 7.68-3.303 1.754-10.299 7.286-15.799 12.493-10.97 10.383-16.816 13.675-26.686 15.024-5.429.743-8.014 2.092-8.073 4.215-.008.303 2.053 1.555 4.58 2.783s7.003 4.51 9.946 7.293l5.352 5.062 5.075-1.089c8.986-1.927 14.223-5.394 23.662-15.663 9.647-10.495 14.222-13.454 23.87-15.436 8.024-1.648 16.195-4.763 16.829-6.417.607-1.581-.567-7.291-2.08-10.119-2.655-4.96-8.289-7.113-15.249-5.826m132.374.441c-2.269.544-4.811 1.761-5.648 2.704-1.976 2.228-6.786 17.484-5.828 18.483.405.422 3.631-.176 7.169-1.329 12.975-4.228 23.55-1.424 37.293 9.888 12.545 10.325 15.518 12.299 23.867 15.843 11.751 4.989 11.297 4.951 15.512 1.298 10.78-9.345 12.355-11.094 11.74-13.032-.811-2.558-3.273-3.78-10.185-5.058-7.804-1.442-12.852-4.216-26.294-14.449-15.952-12.144-21.63-14.664-33.888-15.042-5.287-.162-11.469.15-13.738.694m-95.299 20.619c-4.617 2.428-5.769 4.482-4.31 7.684 1.1 2.414 1.294 2.467 3.946 1.084 4.271-2.228 6.854-1.813 16.566 2.661 11.614 5.35 15.911 5.112 28.147-1.558 9.911-5.403 13.679-5.766 20.193-1.949 2.46 1.442 4.756 2.34 5.101 1.995.345-.346-1.459-2.627-4.008-5.07-6.291-6.027-9.388-6.488-19.904-2.963-10.212 3.423-15.953 3.427-25.713.017-10.348-3.615-15.777-4.131-20.018-1.901m90.035 13.384c-6.647 2.659-9.335 4.451-10.734 7.157-.845 1.634-4.888 14.736-8.985 29.115-8.176 28.694-25.724 82.361-27.889 85.294-.997 1.349-1.67 1.553-2.484.752-1.887-1.858 8.691-47.757 20.949-90.901 4.386-15.437 4.823-18.983 2.451-19.893-5.182-1.989-11.193 1.256-14.208 7.67-2.397 5.099-5.705 8.071-10.889 9.782-4.579 1.511-12.119.775-15.631-1.526-3.09-2.025-2.966-3.286.159-1.614 2.962 1.586 12.793 1.317 16.195-.442 1.809-.935 3.955-3.54 5.561-6.75 4.59-9.172 9.179-12.727 16.429-12.727 5.253 0 4.945-2.362-.367-2.811-5.639-.476-10.944 3.062-15.827 10.557-5.066 7.775-9.953 10.727-16.534 9.985-6.596-.743-11.916-4.792-14.766-11.237-1.604-3.627-3.514-6.117-5.724-7.465-3.912-2.385-3.947-2.389-6.123-.779-1.548 1.145-.762 4.106 9.35 35.25 10.978 33.808 23.573 78.217 22.49 79.3-.966.966-2.297-1.01-6.602-9.806-8.121-16.593-17.244-39.895-27.208-69.494-7.559-22.454-10.754-30.659-12.703-32.618-2.457-2.472-9.044-4.933-17.111-6.394-8.284-1.501-16.334 3.284-21.354 12.693-5.809 10.888-11.545 15.737-18.683 15.797-1.445.012-3.173.68-3.84 1.484-.996 1.199-.401 2.322 3.309 6.248l4.522 4.787 6.475-3.193c7.516-3.707 10.522-7.213 14.482-16.894 3.701-9.048 7.354-11.775 14.952-11.165 6.333.508 10.692 4.052 12.292 9.994 1.234 4.582-.595 12.929-4.539 20.712-1.694 3.342-2.525 6.62-2.525 9.957 0 2.736-.404 5.224-.898 5.529-.494.306-2.273-.728-3.953-2.298-7.55-7.053-22.649-6.25-20.802 1.106.586 2.337 11.906 13.709 45.403 45.612C230.618 230.874 234.766 236 230.671 236c-2.202 0-9.639-5.378-24.17-17.481-21.445-17.861-33.972-29.685-47.001-44.361-6.6-7.434-12.52-13.684-13.156-13.889-1.413-.456-3.563 8.828-2.847 12.295 1.637 7.926 1.097 7.332 6.54 7.208 8.838-.201 14.467 6.561 14.34 17.228-.103 8.666-5.126 16.368-14.21 21.79-1.833 1.094-2.894 2.26-2.358 2.592.536.331 13.511 3.751 28.833 7.599 36.013 9.044 65.235 17.467 67.111 19.344.816.816 1.179 1.976.806 2.579-1.627 2.633-15.633.483-44.559-6.84-53.663-13.586-70.64-17.949-72.121-18.537-1.819-.721-4.879 1.822-4.879 4.055 0 .792 2.025 5.279 4.5 9.972 4.053 7.685 4.498 9.197 4.476 15.239-.017 4.941-.7 8.287-2.594 12.707-1.413 3.3-2.804 7.007-3.09 8.238-1.1 4.732 1.77 4.398 41.208-4.784 11.55-2.689 31.125-6.958 43.5-9.486 12.375-2.528 23.295-4.825 24.266-5.105 1.327-.382 2.255.569 3.728 3.814 1.079 2.378 1.972 4.813 1.984 5.413.02 1.012-44.498 46.12-78.299 79.335-8.073 7.933-14.679 14.958-14.679 15.61 0 .705 2.291 1.422 5.658 1.769 4.027.416 8.529 2.042 15.615 5.64 11.134 5.654 15.491 6.275 22.227 3.166 7.521-3.471 11.566-10.753 9.409-16.94-1.325-3.803-3.514-5.17-8.277-5.17-3.006 0-3.9.6-6.335 4.25-1.559 2.337-4.401 5.037-6.316 5.998-4.481 2.251-13.774 2.295-18.403.088-6.031-2.876-5.039-3.836 3.966-3.836 7.461 0 8.557-.25 10.968-2.5 3.932-3.67 5.488-7.293 5.488-12.776 0-3.818.507-5.352 2.34-7.074 5.047-4.742 13.819-4.284 16.301.85 4.685 9.691 6.358 15.135 6.337 20.625-.051 13.57-10.314 24.606-22.882 24.606-5.527 0-6.802-.588-16.281-7.504-6.669-4.866-7.338-5.121-14.899-5.677-4.354-.32-7.916-.399-7.916-.176 0 1.148 3.834 3.066 6.185 3.094 4.573.054 8.041 1.943 13.994 7.621 10.442 9.96 18.022 11.59 29.821 6.411 3.759-1.65 7.332-3 7.939-3 1.368 0 2.33-2.319 5.186-12.5 6.194-22.084 28.702-80.682 32.943-85.765 1.863-2.232 1.866-2.232 1.899-.119.094 5.97-7.151 33.226-18.533 69.722C220.345 364.449 217 376.7 217 378.563c0 3.223.125 3.34 2.565 2.412 4.093-1.556 8.597-1.153 17.034 1.525 4.332 1.375 9.457 2.49 11.389 2.478 5.141-.032 11.337-3.226 14.628-7.541 2.357-3.09 2.884-4.77 2.884-9.186 0-4.964-.305-5.684-3.735-8.828-2.055-1.883-4.174-3.423-4.71-3.423-.536 0-1.515 1.803-2.175 4.008-1.515 5.054-7.256 11.833-11.537 13.622-3.684 1.539-17.914 1.874-18.799.442-.602-.975.685-1.49 6.456-2.589 4.876-.928 10.349-4.693 12.959-8.916 1.273-2.061 2.627-6.614 3.204-10.773 1.211-8.74 2.908-12.262 6.904-14.329 2.987-1.544 6.79-1.221 7.083.602.45 2.799.138 3.393-2.055 3.911-1.323.312-2.888 1.332-3.478 2.267-1.534 2.432.606 4.216 4.726 3.939 4.404-.297 7.812 2.479 11.069 9.016 3.492 7.007 3.36 11.935-.527 19.714-4.637 9.279-13.733 15.086-23.631 15.086-1.573 0-6.582-1.8-11.131-4-9.625-4.654-14.239-5.076-19.148-1.75-3.79 2.568-5.454 5.578-2.361 4.272 7.151-3.021 8.849-2.967 14.973.475 11.112 6.246 15.026 8.066 18.587 8.644 5.318.863 13.899-2.05 19.815-6.726 6.048-4.781 12.396-7.862 16.261-7.893 3.439-.028 3.433-.42-.186-12.623-14.016-47.249-25.124-93.491-25.032-104.2.027-3.144.217-3.456 1.265-2.08 2.888 3.795 28.292 81.775 37.181 114.136l1.581 5.756 5.266-.619c4.302-.506 6.462-.141 11.799 1.994 7.884 3.155 14.478 3.368 19.821.642 4.898-2.498 7.428-5.727 10.08-12.861 3.011-8.1 4.537-10.05 9.539-12.195 2.44-1.045 4.436-2.328 4.436-2.851 0-.522-9.337-10.062-20.75-21.2-32.36-31.58-70.698-70.517-73.703-74.852-3.417-4.931-2.823-8.069 1.528-8.069 4.901 0 52.432 9.95 67.401 14.11 25.677 7.135 45.811 11.996 48.432 11.691 3.978-.462 3.795-3.861-.59-10.965-3.429-5.555-3.814-6.856-3.781-12.761.04-7.075 1.222-10.074 7.859-19.925 3.739-5.552 4.719-10.785 2.199-11.752-1.39-.533-35.817 7.08-57.095 12.626-13.167 3.432-38.761 9.229-50.36 11.407-9.906 1.859-16.746 2.016-17.74.407-2.07-3.348 7.786-6.432 69.6-21.773 20.075-4.982 37.592-9.314 38.927-9.625 2.24-.523 2.039-.789-2.615-3.447-14.313-8.174-18.616-21.992-11.029-35.415 3.165-5.6 4.278-5.462 3.867.479-.531 7.657.577 11.603 4.302 15.328 4.514 4.514 9.15 5.327 15.177 2.661 5.748-2.543 9.965-2.591 13.951-.16 2.816 1.717 6.42 7.34 6.42 10.015 0 .605.45 1.099 1 1.099 1.583 0 1.128-4.122-.964-8.729-2.118-4.666-6.556-7.931-12.036-8.855-8.277-1.396-9.218-2.498-11.472-13.438-1.285-6.233-2.12-8.019-5.02-10.728-4.275-3.994-9.233-4.318-15.326-1-2.272 1.238-12.131 9.72-21.907 18.85-33.944 31.7-54.29 48.9-57.843 48.9-1.338 0-2.432-.382-2.432-.85 0-3.192 26.812-30.324 65.801-66.588 17.436-16.216 20.259-19.247 20-21.472-.297-2.553-.401-2.585-7.413-2.243-4.992.244-7.99-.107-10.059-1.177l-2.948-1.524-1.103 6.44c-1.499 8.751-5.117 14.674-10.58 17.318-13.584 6.576-26.635-3.165-26.666-19.904-.028-14.939 10.277-25.127 22.202-21.949 3.26.869 5.917 2.851 11.266 8.402 7.958 8.26 11.963 10.126 19.752 9.204 3.45-.409 5.863-.132 7.863.902 2.434 1.259 2.885 1.273 2.885.089 0-2.361-2.696-3.829-9.749-5.305-7.91-1.656-11.277-3.73-20.751-12.781-10.668-10.193-20.258-13.732-28.39-10.479m81.847 17.554c-2.726 2.55-4.957 5.014-4.957 5.476 0 .461 1.621 2.312 3.602 4.113 4.776 4.342 6.028 6.982 8.99 18.952 3.09 12.488 4.284 14.865 11.071 22.035 6.09 6.434 8.337 10.916 8.337 16.632 0 2.267.635 4.437 1.51 5.163 1.799 1.493 7.396.908 12.74-1.333 3.321-1.393 3.75-1.974 3.75-5.077 0-4.387-1.453-7.742-6.107-14.098-5.269-7.197-6.465-9.944-9.402-21.586-3.178-12.6-5.679-17.123-12.86-23.258-3.369-2.879-5.93-6.031-6.636-8.171-1.579-4.785-3.986-4.509-10.038 1.152m-280.958.613c-.001 5.141-5.344 15.097-11.863 22.104-7.494 8.056-9.414 11.816-12.597 24.682-2.283 9.226-4.135 13.696-8.563 20.669-.77 1.212-1.14 2.465-.821 2.783 1.076 1.076 19.05 5.647 20.308 5.165.686-.264 1.505-2.07 1.821-4.015.918-5.659 3.27-9.666 11.207-19.094 7.934-9.425 9.855-13.612 11.029-24.044.799-7.097 2.411-11.293 5.342-13.905 1.176-1.048 2.138-2.436 2.138-3.086 0-2.044-13.662-14.509-15.903-14.509-1.699 0-2.097.617-2.098 3.25m207.111 14.091c-7.087 4.09-6.411 13.964 1.138 16.595 6.833 2.383 14.752-2.119 14.752-8.385 0-6.556-9.896-11.669-15.89-8.21m-72.61 3.553c-4.248 1.848-7.203 7.316-6 11.106.852 2.686 1.943 2.519 3.322-.508.628-1.379 2.66-3.231 4.515-4.116 3.13-1.492 3.639-1.481 7.079.151 3.597 1.707 8.584 7.636 8.584 10.205 0 .697.45 1.268 1 1.268 3.412 0-1.398-12.854-6.087-16.265-2.963-2.156-9.469-3.121-12.413-1.841m123.996 4.113c-.647 1.046.044 1.394 4.882 2.461 4.186.923 8.364 5.562 9.123 10.132.356 2.145.987 5.7 1.401 7.9l.754 4 .759-6.158c1.033-8.372-1.473-14.311-7.291-17.279-4.345-2.216-8.621-2.685-9.628-1.056M163.5 154.563c-1.65.853-3.659 2.2-4.464 2.994-1.285 1.266-1.259 1.649.219 3.126 1.577 1.578 1.804 1.573 3.619-.069 2.741-2.481 11.061-4.781 14.621-4.042 4.099.851 11.077 4.978 12.959 7.666 1.06 1.513 1.546 1.735 1.546.707 0-2.51-3.019-6.001-7.826-9.049-3.844-2.438-5.601-2.895-11.12-2.89-3.953.004-7.744.622-9.554 1.557m41.25 1.517c-2.01 1.171-2.349 5.921-.55 7.72 1.683 1.683 5.364 1.494 7.229-.371 4.401-4.402-1.185-10.549-6.679-7.349m-65.472 1.438c-5.223 3.658-6.661 7.295-7.322 18.518-.784 13.289-2.699 17.181-12.206 24.804-4.006 3.212-6.75 6.175-6.75 7.286 0 2.356.58 2.349 3.622-.043 1.34-1.054 4.336-2.227 6.657-2.606 5.908-.964 10.486-4.037 13.8-9.263 3.65-5.755 4.468-11.525 2.96-20.873-1.168-7.239-1.121-7.691 1.316-12.615 3.228-6.522 2.479-8.399-2.077-5.208m150.142 15.367c-6.115 3.729-6.923 11.893-1.715 17.329 4.979 5.197 15.382 2.819 18.281-4.179 4.05-9.779-7.308-18.795-16.566-13.15m-80.222.865c-1.113.963-2.296 2.692-2.629 3.843-.826 2.862 2.858 7.407 6.004 7.407 3.145 0 6.427-3.319 6.427-6.5 0-2.953-3.214-6.5-5.889-6.5-1.039 0-2.8.787-3.913 1.75M293 177.294c-3.631 1.837-3.551 7.539.135 9.608 2.363 1.327 2.904 1.303 5.25-.235 3.379-2.213 3.58-6.878.392-9.11-2.657-1.862-2.62-1.86-5.777-.263M336 202c-1.1 1.1-2 2.9-2 4 0 2.121 3.275 6 5.066 6 1.503 0 5.294-2.089 6.169-3.4 1.292-1.936.827-3.629-1.69-6.145-2.977-2.978-4.906-3.094-7.545-.455m-261.63 9.44c-4.446 1.935-4.811 3.111-2.248 7.257 3.431 5.552 3.002 11.135-1.636 21.303-2.766 6.062-3.997 10.268-4.293 14.667-.375 5.564-.014 7.039 3.696 15.092 4.508 9.785 4.803 12.075 2.611 20.241-1.967 7.329-1.978 7.288 1.75 6.75 3.191-.459 19.879-4.824 20.636-5.397.213-.161-1.025-4.549-2.75-9.751-3.892-11.739-3.998-17.654-.596-33.369 1.397-6.453 2.815-15.897 3.151-20.987.741-11.217.059-12.316-9.461-15.257-7.514-2.321-6.864-2.288-10.86-.549m100.38-.36c-2.187 1.274-2.305 6.214-.19 7.97 2.425 2.012 6.865.055 7.244-3.193.31-2.648-1.98-5.882-4.125-5.827-.649.017-1.966.489-2.929 1.05m248.485 2.417c-1.796.781-3.503 2.037-3.792 2.791-.29.755.63 4.936 2.044 9.292 4.012 12.363 4.203 18.827.972 32.92-1.875 8.177-2.827 15.345-2.988 22.5-.129 5.775-.401 11.4-.603 12.5-.299 1.625.569 2.31 4.632 3.656 6.662 2.206 13.68 3.113 15.373 1.987 1.135-.755 1.168-2.085.191-7.699-1.434-8.234-.776-12.826 3.123-21.802 1.639-3.771 3.221-9.197 3.516-12.058.485-4.692.134-5.962-3.583-12.978-5.099-9.623-5.524-15.667-1.62-23.01 3.147-5.918 3.13-6.219-.45-8.07-3.672-1.899-12.477-1.914-16.815-.029m-313.2 9.437c-2.014 3.763-1.133 10.096 2.532 18.214 5.423 12.012 5.426 13.102.053 24.596-3.629 7.763-4.62 10.995-4.62 15.069 0 6.495 1.642 6.773 2.581.437.596-4.018 1.534-5.55 6.087-9.938 6.036-5.818 8.332-10.317 8.332-16.33 0-4.87-1.591-8.163-7.825-16.198-4.41-5.684-4.669-6.359-4.564-11.905.113-6.032-.751-7.355-2.576-3.945m292.274 1.301c.936 6.241-.801 9.709-8.986 17.943-7.593 7.638-7.694 7.808-8.114 13.607-.477 6.602 1.541 11.807 6.289 16.215 3.785 3.515 5.502 7.244 5.502 11.95 0 4.48 1.294 5.238 3.12 1.826 2.176-4.067 1.294-10.106-2.528-17.308-5.136-9.678-4.832-12.797 2.029-20.859 4.493-5.278 6.79-12.492 6.027-18.929-.329-2.783-1.341-5.761-2.249-6.62-1.521-1.438-1.606-1.268-1.09 2.175M164 243.624c-3.195 2.243-4.254 3.936-5.545 8.863-2.029 7.746-9.467 8.587-14.174 1.602-1.255-1.862-2.281-4.723-2.281-6.359 0-2.616-.193-2.815-1.604-1.644-2.206 1.831-1.282 7.977 1.929 12.829 4.361 6.59 12.145 8.659 16.799 4.466 1.434-1.292 2.051-1.21 5.292.702 9.411 5.552 20.49-4.191 16.265-14.303-2.711-6.489-11.558-9.754-16.681-6.156m173.82 1.872c-.94 2.062-.822 2.844.676 4.5 3.314 3.661 9.278 2.078 7.989-2.121-1.096-3.567-2.472-4.875-5.129-4.875-1.587 0-2.784.844-3.536 2.496m34.618 2.368c-3.26 8.147-11.508 10.724-20.148 6.294-5.359-2.747-5.569-2.734-13.06.81-6.321 2.99-8.42 5.59-7.464 9.245.587 2.246.436 2.268 4.829-.713 4.472-3.035 8.632-3.17 15.405-.5 6.24 2.46 10.44 2.529 14.98.248 4.446-2.233 7.736-7.17 8.595-12.896.96-6.408-.96-7.931-3.137-2.488m-89.996 24.31c23.354 22.151 55.051 51.666 55.261 51.456.117-.117-.401-4.019-1.152-8.671-.75-4.653-1.514-10.223-1.697-12.379-.483-5.686 1.75-5.709 2.602-.027.382 2.551 2.03 9.433 3.661 15.293 3.264 11.724 6.62 17.534 14.752 25.531 4.508 4.434 5.269 4.82 8.37 4.238 5.843-1.096 10.401-7.387 12.763-17.615 1.642-7.114 4.42-12.575 7.384-14.518 1.299-.85 4.686-1.822 7.528-2.158 3.871-.459 5.659-1.237 7.127-3.103 1.077-1.37 1.949-2.993 1.937-3.606-.012-.613-.893.01-1.956 1.385-1.776 2.296-2.12 2.383-4.228 1.066-5.291-3.307-7.923-4.197-10.647-3.598-5.259 1.155-9.422 4.99-13.094 12.06-4.286 8.255-7.357 10.743-13.422 10.875-5.373.116-9.105-2.297-12.365-7.997-4.115-7.197-2.626-15.401 3.775-20.787 5.259-4.425 15.278-3.344 20.286 2.19l1.822 2.013 4.675-2.074c6.113-2.71 11.955-2.666 16.687.126 4.14 2.443 4.99 2.28 4.021-.773-1.501-4.729-10.833-8.157-46.532-17.094-20.121-5.038-39.379-10.502-60.256-17.097a11659.58 11659.58 0 0 0-17.5-5.52c-.959-.298 3.63 4.554 10.198 10.784m-62.942-4.999c-20.114 5.959-41.427 11.443-59.329 15.265-17.925 3.828-33.171 8.167-33.171 9.44 0 1.77 7.857 4.369 11.186 3.7 1.823-.366 6.014-.91 9.314-1.21 5.179-.471 6.466-.225 9.408 1.792 5.452 3.74 7.414 7.146 7.888 13.689 1.237 17.103-11.11 30.805-23.205 25.751-4.698-1.963-6.591-6.344-6.591-15.254 0-8.637-2.622-14.304-8.484-18.337-6.8-4.678-16.516-5.912-16.516-2.096 0 2.576 2.92 4.73 7.5 5.532 9.018 1.58 12.225 6.416 13.426 20.249.471 5.415 1.525 11.448 2.344 13.407 1.978 4.736 6.154 7.897 10.431 7.897 3.125 0 5.139-1.716 22.615-19.266 10.551-10.596 25.934-25.329 34.184-32.742 18.692-16.794 33.152-30.698 32.498-31.249-.274-.231-6.348 1.314-13.498 3.432m-44.845 30.654c-3.343 3.693-1.019 9.171 3.891 9.171 1.64 0 2.879-.921 3.902-2.899 1.384-2.676 1.342-3.098-.547-5.5-2.402-3.053-4.938-3.323-7.246-.772m-49.077.589c3.716 1.619 10.066 7.057 11.64 9.969.628 1.162 1.64 4.588 2.249 7.613.895 4.448 1.52 5.56 3.268 5.813 5.184.75 9.265-4.9 9.265-12.826 0-3.058-.65-4.728-2.599-6.677l-2.6-2.6 3.313.663c4.325.865 8.499 4.946 9.711 9.496.955 3.582.97 3.591 1.068.631.119-3.596-2.84-8.764-6.326-11.048-2.532-1.659-3.503-1.651-15.292.119-2.775.417-5.838.085-8.928-.968-5.669-1.932-9.086-2.064-4.769-.185M83.5 303.871c-4.274 1.953-10.5 7.263-10.5 8.955 0 .563 1.875 2.07 4.166 3.349 4.921 2.746 6.83 6.105 10.314 18.147 3.478 12.018 5.599 15.809 13.54 24.199 5.816 6.144 6.919 7.891 7.521 11.904.388 2.586.468 6.474.177 8.639-.464 3.464-.284 3.936 1.506 3.936C112.43 383 130 366.492 130 364.42c0-.671-1.516-3.472-3.369-6.226-2.017-2.996-4.081-7.956-5.142-12.35-2.592-10.738-5.426-15.583-13.032-22.284-4.876-4.297-7.433-7.48-9.238-11.5-4.583-10.212-7.717-11.845-15.719-8.189m334 4.523c-7.064 4.286-9.359 8.459-12.456 22.647-3.436 15.744-9.702 25.725-19.16 30.518-2.608 1.321-5.006 2.829-5.327 3.349-.788 1.275 9.757 13.583 14.717 17.175 4.404 3.191 5.726 3.029 5.726-.699 0-6.842 2.273-11.455 9.683-19.652 8.561-9.471 12.367-16.636 15.421-29.037 2.393-9.713 5.068-14.521 9.183-16.5 3.297-1.585 3.36-2.257.463-4.896-5.706-5.197-12.65-6.302-18.25-2.905m-227.904 25.912c-1.098.803-1.653 2.248-1.441 3.75.461 3.268 5.467 3.88 8.913 1.09 2.381-1.928 2.388-1.985.518-4.051-2.159-2.385-5.373-2.703-7.99-.789m114.782 3.083c-8.81 3.969-10.33 16.237-3.749 30.254 7.557 16.095 26.827 20.999 37.673 9.588 4.965-5.225 11.467-24.02 8.866-25.627-.576-.356-2.537.26-4.358 1.37-4.079 2.487-12.361 2.729-15.606.456-1.232-.863-3.316-3.675-4.629-6.25-4.711-9.232-11.422-12.843-18.197-9.791M307 352.643c-3.8 2.683-4.933 4.542-4.968 8.147-.069 7.091 5.522 13.424 14.308 16.208 8.801 2.789 19.315-3.268 22.127-12.748.637-2.146.407-2.25-4.965-2.25-6.783 0-8.927-.972-13.502-6.123-4.228-4.759-9.118-5.976-13-3.234m-184.471 30.929c-4.145 3.614-7.99 7.42-8.545 8.458-1.239 2.316.477 3.408 7.016 4.465 6.967 1.126 13.729 4.846 23 12.651 16.233 13.667 25.035 17.865 37.407 17.839 3.901-.008 8.206-.577 9.565-1.266 2.623-1.326 4.815-6.792 4.951-12.344.067-2.723-.325-3.205-3.048-3.75-1.719-.344-4.094-.625-5.278-.625-4.12 0-16.169-6.74-27.597-15.436C149.177 385.328 134.875 377 131.554 377c-.819 0-4.881 2.957-9.025 6.572m247.971-4.168c-2.75 1.311-9.5 6.269-15 11.017-12.779 11.033-18.614 13.956-28 14.026-3.85.029-8.869-.317-11.154-.769-3.766-.745-4.463-.546-7.461 2.133l-3.306 2.954 1.805 7.657c2.248 9.536 3.786 10.745 14.461 11.363 6.673.386 8.912.03 17.145-2.728 11.55-3.87 18.014-7.487 28.481-15.937 11.733-9.473 15.812-11.8 22.047-12.579 3.015-.377 5.482-1.156 5.482-1.732 0-1.54-16.608-17.811-18.169-17.799-.732.005-3.581 1.082-6.331 2.394m-99 28.83c-10.284 4.889-11.488 5.226-18.5 5.19-6.456-.034-8.929-.622-17.771-4.232-19.278-7.869-26.439-5.21-31.335 11.637-1.6 5.507-.427 6.48 6.879 5.707 4.523-.479 7.223.109 19 4.142 11.902 4.075 14.791 4.699 21.727 4.689 8.224-.013 11.348-.861 25.5-6.921 4.787-2.05 8.695-2.904 14.831-3.244 5.371-.297 8.502-.905 8.811-1.71.69-1.799-5.58-16.668-7.903-18.742-3.543-3.163-9.212-2.233-21.239 3.484"/></svg>
