<svg xmlns="http://www.w3.org/2000/svg" viewBox="0 0 420 842"><path fill-rule="evenodd" d="M0 21.67v20.978l7.75 1.678c4.263.922 13.902 4.168 21.421 7.213 23.341 9.451 31.705 10.108 43.556 3.42 8.246-4.654 9.735-4.069 14.659 5.758 3.238 6.462 3.25 5.97-.422 17.91-5.732 18.642-7.987 21.21-19.419 22.114-7.368.583-28.178-1.752-47.045-5.279-7.7-1.44-15.462-2.866-17.25-3.171L0 91.738v52.542l5.38-.555c3.276-.339 11-2.894 19.75-6.535 23.075-9.601 35.972-10.803 41.708-3.886 1.702 2.052.16 2.42-12.669 3.019-10.427.486-7.256-1.119-31.099 15.744C15.077 157.72 7.458 161 2.318 161 .115 161 0 161.346 0 168v7h2.864c7.311 0 14.548-2.438 29.664-9.991 17.729-8.859 18.967-9.146 23.395-5.42 3.648 3.07 3.817 5.148 1.158 14.303-1.72 5.925-15.39 59.144-34.961 136.108-12.027 47.299-17.787 79.529-15.457 86.5 1.092 3.267 3.616 4.343 5.847 2.491 4.048-3.359 18.665-53.43 39.935-136.801C64.425 215.234 66.993 206 68.071 206c.419 0 3.214 3.488 6.21 7.75 13.768 19.585 29.687 27.891 48.455 25.28 18.419-2.561 27.233-11.657 27.254-28.125.012-9.184.852-10.208 9.812-11.956 8.188-1.598 19.687-.711 25.791 1.989l4.758 2.105-3.426 3.587c-1.884 1.973-12.425 11.798-23.425 21.833-37.045 33.796-69.566 68.954-105.432 113.981-17.058 21.415-22.445 30.707-18.647 32.164 3.827 1.469 18.407-12.282 64.796-61.108 35.346-37.203 64.333-65.681 68.67-67.464 14.495-5.958 17.073 22.686 3.612 40.136-7.017 9.096-6.294 10.508 5.501 10.734 6.996.134 11.083 1.283 23.701 6.664 24.195 10.318 38.606 10.719 48.763 1.357 10.99-10.131 12.326-29.733 2.653-38.927-3.85-3.659-6.857-5.334-21.443-11.943-15.869-7.19-21.652-13.042-30.681-31.047l-4.257-8.49 6.382-5.844c15.123-13.847 17.534-13.745 19.366.824 1.541 12.256 10.074 22.127 28.336 32.78 28.522 16.638 34.496 33.924 22.624 65.464-6.101 16.21-4.223 15.204-72.444 38.768-42.427 14.654-63.702 22.403-86.5 31.505-49.708 19.846-85.186 38.274-68.25 35.45 18.203-3.035 100.033-26.756 160.75-46.6 56.463-18.453 62.465-19.859 65.433-15.329 3.626 5.534-3.153 14.876-15.61 21.511-16.171 8.614-24.046 19.677-24.176 33.96-.105 11.648 5.628 19.783 21.989 31.199 8.2 5.722 13.562 11.347 16.96 17.792 3.55 6.731 1.507 24.597-2.228 19.489-.752-1.029-1.368-3.984-1.368-6.565 0-12.478-8.204-23.693-22.94-31.361-9.049-4.709-15.517-10.479-17.257-15.393-2.053-5.802-1.683-25.837.554-30.013 1.943-3.627 1.568-5.17-.783-3.219-2.625 2.179-5.489 9.402-6.467 16.312-2.524 17.819 4.542 32.001 19.773 39.689 13.246 6.687 20.219 19.165 15.949 28.538-2.456 5.389-4.832 4.998-58.146-9.568-96.733-26.429-161.277-40.612-164.092-36.056-2.032 3.287 7.04 6.941 64.409 25.944 44.197 14.639 71.803 23.271 105 32.831 30.359 8.742 57.908 17.27 60.98 18.876 8.353 4.367 17.039 21.928 16.999 34.372-.044 13.818-7.56 27.532-26.1 47.624-15.893 17.223-17.276 19.787-24.493 45.424-1.986 7.057-5.509 12.076-8.475 12.076-2.374 0-2.37-.289.091-6.765 1.66-4.367 1.958-7.266 1.75-17.004-.345-16.097 1.585-20.056 18.058-37.035 15.163-15.629 17.621-19.901 17.66-30.696.067-18.105-13.466-31.957-34.725-35.543-31.966-5.392-58.8 16.416-52.706 42.834 3.964 17.186 16.376 26.863 39.581 30.861 5.434.936 10.036 1.817 10.228 1.956.191.14-.673 2.873-1.921 6.073-1.876 4.815-2.303 8.02-2.472 18.569-.255 15.893-.025 14.597-2.829 15.874-5.026 2.29-8.553-.878-49.12-44.124C96.211 510.798 47.984 463 42.365 463c-2.61 0-2.816 5.159-.377 9.448 7.62 13.401 39.472 50.323 95.19 110.343 40.808 43.96 46.531 53.208 41.338 66.807-3.968 10.39-10.783 14.991-28.016 18.914-19.695 4.484-21.896 6.337-24.976 21.011-2.117 10.086-6.241 17.539-12.222 22.087-4.811 3.658-15.94 7.682-19.94 7.21-3.219-.38-4.292-2.559-1.695-3.444 21.848-7.445 27.801-19.349 20.41-40.814-5.131-14.901-3.728-21.873 6.311-31.368 6.979-6.6 12.288-8.194 27.294-8.194 11.858 0 13.136-.57 8.568-3.821-11.211-7.978-26.31-12.144-37.654-10.388-16.961 2.625-28.64 11.98-40.943 32.795-2.148 3.633-3.048 4.459-3.664 3.359-.449-.802-8.728-33.18-18.399-71.951C19.969 450.208 14.662 432.886 8.545 437.962c-6.032 5.007.427 42.093 23.955 137.538 18.701 75.865 25.901 110.083 23.837 113.296-2.903 4.519-13.219 1.199-30.175-9.71-9.137-5.879-16.397-9.18-22.912-10.418L0 668.05v6.368C0 681.159.603 682 5.432 682c3.256 0 9.447 4.764 22.627 17.41 14.98 14.373 18.403 16.146 30.747 15.92 8.384-.154 9.177-.014 8 1.412-4.739 5.743-21.344 7.373-34.012 3.34-6.068-1.932-10.352-4.5-26.414-15.832C3.847 702.462 1.368 701 .871 701c-.521 0-.79 11.919-.637 28.247L.5 757.494l8 1.299c14.863 2.414 29.53 1.123 48-4.224 19.829-5.742 22.057-5.701 25.217.456 4.662 9.086 5.334 26.478 1.37 35.475-3.102 7.043-3.81 7.181-13.783 2.692-19.809-8.916-27.843-8.397-51.1 3.301-5.887 2.961-12.391 5.686-14.454 6.057l-3.75.673v38.911l10.75-.613c18.101-1.033 31.195-2.546 43.903-5.073 19.508-3.878 24.991-4.117 33.145-1.444 8.115 2.66 10.101 2.362 16.824-2.522 7.547-5.483 19.229-10.742 38.878-17.501 50.624-17.413 86.755-36.055 116.405-60.058 20.764-16.809 22.409-17.855 35.433-22.527 5.677-2.036 7.078-3.913 8.622-11.552 1.421-7.031 4.25-11.308 17.096-25.844 43.784-49.546 59.606-78.496 67.495-123.498 2.906-16.575 4.398-21.994 8.891-32.297 3.411-7.82 4.905-13.891 6.081-24.705.359-3.3 2.869-14.656 5.579-25.236 15.057-58.785 14.265-98.17-3.081-153.264-7.189-22.832-8.08-26.998-8.634-40.355-.658-15.876-1.28-18.314-9.358-36.645a4608.602 4608.602 0 0 1-10.942-25.029c-11.792-27.331-30.061-55.639-57.087-88.459-11.473-13.933-18.34-23.625-19.494-27.512-1.189-4.002-3.395-5.85-12.011-10.06-4.458-2.178-13.705-8.233-20.55-13.456-6.845-5.223-15.81-12.071-19.923-15.217C193.569 37.603 97.012 5.621 12.75 1.34L0 .692V21.67m106.132 41.084c-1.721 3.216-8.183 28.439-8.801 34.355-.692 6.618-.462 6.824 10.132 9.073 9.448 2.005 18.257 7.567 39.698 25.066 15.363 12.538 22.55 15.687 42.775 18.742 15.835 2.393 21.481 4.47 28.259 10.4 2.899 2.535 5.792 4.61 6.429 4.61 3.273 0 24.015-21.247 28.081-28.765 2.464-4.555.99-6.559-5.409-7.357-13.226-1.649-28.093-9.907-46.047-25.576-15.462-13.494-21.71-16.599-46.749-23.23-17.233-4.565-25.847-7.911-37.167-14.44-8.941-5.157-9.856-5.393-11.201-2.878m164.399 71.457c-4.26 7.966-10.998 17.152-19.182 26.151-8.226 9.047-8.137 8.709-5.272 19.971 4.232 16.636 12.006 28.226 30.129 44.915 20.523 18.899 26.937 28.807 31.743 49.038 5.971 25.133 10.018 33.721 15.883 33.702 24.318-.079 34.583-17.849 26.289-45.511-8.458-28.211-15.614-39.894-42.551-69.477-15.045-16.522-21.027-27.645-24.688-45.902-3.58-17.854-7.504-21.948-12.351-12.887m-180.058 3.832c-.354.574.542 2.599 1.992 4.501 3.359 4.403 5.014 8.397 6.964 16.806 5.318 22.931 26.063 35.857 52.29 32.582 21.166-2.643 23.163-2.549 32.157 1.512 13.695 6.184 16.984 4.963 10.848-4.025-6.802-9.965-13.847-12.824-35.724-14.498-24.73-1.892-32.794-5.114-44.5-17.781-18.354-19.861-21.841-22.633-24.027-19.097M6.235 190.155C.399 191.176 0 191.554 0 196.059c0 4.599-.133 4.542 4.388 1.874 1.927-1.136 6.003-2.324 9.058-2.64 5.966-.615 6.529-1.134 3.804-3.507-2.321-2.022-5.819-2.54-11.015-1.631M0 250.236v24.036l4.517-.619c15.797-2.165 25.89-20.751 18.301-33.7-3.734-6.373-5.834-7.933-14.824-11.013L0 226.2v24.036m188.599-20.34-2.775 2.897 3.596 5.227c11.082 16.11 8.835 36.243-5.719 51.262-2.64 2.724-4.573 5.179-4.297 5.455 2.804 2.805 16.169-9.383 21.096-19.237 2.872-5.744 3-6.556 3-19 0-14.065-1.809-20.04-8.133-26.86-3.06-3.3-3.372-3.288-6.768.256M75 258.294c-5.215 2.638-5.793 8.962-1.275 13.954 2.008 2.22 8.996 2.336 12.045.201 9.337-6.54-.435-19.383-10.77-14.155m107.8 61.752c-6.486 6.486.311 18.406 9.362 16.419 7.711-1.694 9.669-14.433 2.766-18.002-4.616-2.387-8.69-1.855-12.128 1.583m159.418-.575c-8.3 2.592-8.872 5.289-3.628 17.126 6.154 13.894 6.353 21.16 1.211 44.403-5.699 25.767-5.554 39.524.671 63.601 5.676 21.951 4.682 28.729-6.479 44.213-7.06 9.795-6.918 9.012-2.222 12.284 5.338 3.719 12.579 5.958 21.377 6.608l7.647.566 5.053-4.727c3.603-3.37 6.335-7.354 9.522-13.885 8.313-17.039 9.583-29.09 5.604-53.16-1.975-11.947-2.122-15.915-1.812-49 .384-40.894.697-38.949-8.712-54.105-9.033-14.549-15.7-17.837-28.232-13.924m-194.829 6.382c-9.488 5.943-9.309 15.786.389 21.45 6.066 3.542 18.222-2.619 18.222-9.235 0-8.922-11.655-16.572-18.611-12.215M295.37 338.44c-4.49 1.955-4.719 2.883-2.161 8.78 3.823 8.811 2.739 14.35-7.002 35.78-9.072 19.958-8.295 28.045 5.251 54.625 9.789 19.207 10.215 23.922 3.394 37.603-6.438 12.914-4.95 14.096 5.066 4.022 12.537-12.611 13.58-19.212 6.598-41.75-6.371-20.566-6.07-30.305 1.685-54.5 7.031-21.938 6.156-35.089-2.862-43.007-3.774-3.314-5.356-3.56-9.969-1.553m-107.825 48.903c-1.743 1.275-1.7 1.441.846 3.25 6.66 4.735 7.763 5.814 10.21 9.989 1.452 2.478 2.599 5.972 2.599 7.918 0 8.476-12.178 21.375-23.533 24.928-3.794 1.186-1.015 3.074 4.308 2.925 6.652-.185 20.381-6.717 24.874-11.834 5.217-5.942 7.772-19.1 5.087-26.204-3.407-9.019-18.052-15.607-24.391-10.972m-51.054 94.468C115.798 491.489 123.126 524 146 524c27.577 0 28.655-42.48 1.111-43.757-4.872-.226-7.666.187-10.62 1.568m3.835 11.376c-4.229 2.045-6.874 8.852-4.913 12.645 4.928 9.529 17.466 9.117 21.536-.709 3.344-8.073-7.906-16.152-16.623-11.936m169.007 22.389c-.556 1.446.523 6.427 4.205 19.424 5.59 19.733-.753 42.081-18.309 64.5a35080.6 35080.6 0 0 1-15.502 19.778c-12.39 15.793-24.855 40.711-26.377 52.728l-.571 4.507 9.674 10.993c22.687 25.782 25.924 25.191 32.932-6.006 2.377-10.58 9.507-23.458 23.324-42.131C349.862 597.267 352.96 590 352.971 559c.01-30.185-2.639-34.062-28.274-41.379-12.433-3.549-14.673-3.847-15.364-2.045m-114.017 19.367c-19.581 8.891-8.262 45.805 11.995 39.119 7.999-2.639 15.573-15.566 14.074-24.017-2.314-13.037-14.749-20.241-26.069-15.102M93.5 580.871c-8.695 5.4-9.29 10.968-1.996 18.701 4.34 4.603 7.112 4.177 13.413-2.06 6.632-6.565 5.532-12.607-3.117-17.107-3.53-1.836-4.699-1.771-8.3.466m-83.911 8.206c-6.473 7.693-3.634 16.092 4.898 14.491 9.362-1.756 12.905-12.245 5.441-16.105-4.43-2.291-7.45-1.82-10.339 1.614M.166 604.5v14l2.356-5c2.985-6.336 2.985-11.664 0-18l-2.356-5v14m-.149 47.131L0 659.763l4.443 1.118c4.875 1.228 14.833 1.51 15.893.45.826-.826-2.226-4.331-3.772-4.331-2.363 0-12.492-7.196-14.465-10.276L.034 643.5l-.017 8.131m200.952-3.05c-.539 1.419-1.485 4.584-2.102 7.033-1.33 5.282-8.15 13.343-13.393 15.831-1.958.93-9.259 2.784-16.225 4.122-6.965 1.338-12.908 2.493-13.207 2.567-1.787.44 10.777 1.705 17.67 1.778 17.049.182 29.41-9.565 31.946-25.191 1.186-7.31-2.439-12.057-4.689-6.14m28.504 39.467c-9.042 9.139-14.432 11.696-37.973 18.015-24.041 6.453-28.867 8.834-42.826 21.125-13.396 11.796-22.034 16.544-31.674 17.409-16.092 1.445-17.885 5.509-11.337 25.692 3.188 9.826 4.945 11.177 13.636 10.479 7.434-.597 13.482-3.431 26.273-12.316 12.025-8.353 19.031-11.804 30.446-14.997 5.215-1.46 14.207-3.982 19.982-5.607 17.826-5.014 23.752-8.531 37.363-22.172 8.702-8.722 13.316-12.556 17.319-14.388 7.325-3.353 8.393-5.79 5.032-11.475-2.827-4.78-16.353-18.813-18.135-18.813-.623 0-4.271 3.171-8.106 7.048"/></svg>
